<svg xmlns="http://www.w3.org/2000/svg" xmlns:xlink="http://www.w3.org/1999/xlink" width="500" zoomAndPan="magnify" viewBox="0 0 375 374.999991" height="500" preserveAspectRatio="xMidYMid meet" version="1.2"><defs><clipPath id="471a3f3dc3"><path d="M 37.5 103.195312 L 147 103.195312 L 147 212.695312 L 37.5 212.695312 Z M 37.5 103.195312 "/></clipPath></defs><g id="f8b7d75db8"><g clip-rule="nonzero" clip-path="url(#471a3f3dc3)"><path style=" stroke:none;fill-rule:nonzero;fill:#5271ff;fill-opacity:1;" d="M 141.523438 187.144531 L 42.976562 187.144531 C 41.96875 187.144531 41.148438 186.324219 41.148438 185.320312 L 41.148438 179.847656 L 143.351562 179.847656 L 143.351562 185.320312 C 143.351562 186.324219 142.53125 187.144531 141.523438 187.144531 Z M 101.375 198.097656 L 83.125 198.097656 L 83.125 190.796875 L 101.375 190.796875 Z M 112.324219 201.746094 C 113.332031 201.746094 114.148438 202.566406 114.148438 203.570312 L 114.148438 209.046875 L 70.351562 209.046875 L 70.351562 203.570312 C 70.351562 202.566406 71.167969 201.746094 72.175781 201.746094 Z M 42.976562 121.445312 L 50.273438 121.445312 L 50.273438 123.269531 L 44.800781 123.269531 C 43.792969 123.269531 42.976562 124.089844 42.976562 125.097656 L 42.976562 172.546875 C 42.976562 173.550781 43.792969 174.371094 44.800781 174.371094 L 139.699219 174.371094 C 140.707031 174.371094 141.523438 173.550781 141.523438 172.546875 L 141.523438 125.097656 C 141.523438 124.089844 140.707031 123.269531 139.699219 123.269531 L 134.226562 123.269531 L 134.226562 121.445312 L 141.523438 121.445312 C 142.53125 121.445312 143.351562 122.265625 143.351562 123.269531 L 143.351562 176.195312 L 41.148438 176.195312 L 41.148438 123.269531 C 41.148438 122.265625 41.96875 121.445312 42.976562 121.445312 Z M 55.75 106.847656 L 128.75 106.847656 C 129.753906 106.847656 130.574219 107.664062 130.574219 108.671875 L 130.574219 114.144531 L 53.925781 114.144531 L 53.925781 108.671875 C 53.925781 107.664062 54.746094 106.847656 55.75 106.847656 Z M 55.75 167.070312 L 128.75 167.070312 C 131.773438 167.070312 134.226562 164.617188 134.226562 161.597656 L 134.226562 126.921875 L 137.875 126.921875 L 137.875 170.722656 L 46.625 170.722656 L 46.625 126.921875 L 50.273438 126.921875 L 50.273438 161.597656 C 50.273438 164.617188 52.726562 167.070312 55.75 167.070312 Z M 130.574219 161.597656 C 130.574219 162.601562 129.753906 163.421875 128.75 163.421875 L 55.75 163.421875 C 54.746094 163.421875 53.925781 162.601562 53.925781 161.597656 L 53.925781 117.796875 L 130.574219 117.796875 Z M 141.523438 117.796875 L 134.226562 117.796875 L 134.226562 108.671875 C 134.226562 105.648438 131.773438 103.195312 128.75 103.195312 L 55.75 103.195312 C 52.726562 103.195312 50.273438 105.648438 50.273438 108.671875 L 50.273438 117.796875 L 42.976562 117.796875 C 39.953125 117.796875 37.5 120.25 37.5 123.269531 L 37.5 185.320312 C 37.5 188.34375 39.953125 190.796875 42.976562 190.796875 L 79.476562 190.796875 L 79.476562 198.097656 L 72.175781 198.097656 C 69.152344 198.097656 66.699219 200.546875 66.699219 203.570312 L 66.699219 210.871094 C 66.699219 211.875 67.519531 212.695312 68.523438 212.695312 L 115.976562 212.695312 C 116.980469 212.695312 117.800781 211.875 117.800781 210.871094 L 117.800781 203.570312 C 117.800781 200.546875 115.347656 198.097656 112.324219 198.097656 L 105.023438 198.097656 L 105.023438 190.796875 L 141.523438 190.796875 C 144.546875 190.796875 147 188.34375 147 185.320312 L 147 123.269531 C 147 120.25 144.546875 117.796875 141.523438 117.796875 "/></g><path style=" stroke:none;fill-rule:nonzero;fill:#5271ff;fill-opacity:1;" d="M 134.226562 181.671875 L 130.574219 181.671875 C 129.570312 181.671875 128.75 182.492188 128.75 183.496094 C 128.75 184.5 129.570312 185.320312 130.574219 185.320312 L 134.226562 185.320312 C 135.230469 185.320312 136.050781 184.5 136.050781 183.496094 C 136.050781 182.492188 135.230469 181.671875 134.226562 181.671875 "/><path style=" stroke:none;fill-rule:nonzero;fill:#5271ff;fill-opacity:1;" d="M 61.226562 108.671875 L 57.574219 108.671875 L 57.574219 112.320312 L 61.226562 112.320312 L 61.226562 108.671875 "/><path style=" stroke:none;fill-rule:nonzero;fill:#5271ff;fill-opacity:1;" d="M 68.523438 108.671875 L 64.875 108.671875 L 64.875 112.320312 L 68.523438 112.320312 L 68.523438 108.671875 "/><path style=" stroke:none;fill-rule:nonzero;fill:#5271ff;fill-opacity:1;" d="M 75.824219 108.671875 L 72.175781 108.671875 L 72.175781 112.320312 L 75.824219 112.320312 L 75.824219 108.671875 "/><path style=" stroke:none;fill-rule:nonzero;fill:#5271ff;fill-opacity:1;" d="M 66.699219 125.097656 L 70.351562 125.097656 C 71.355469 125.097656 72.175781 124.277344 72.175781 123.269531 C 72.175781 122.265625 71.355469 121.445312 70.351562 121.445312 L 66.699219 121.445312 C 65.695312 121.445312 64.875 122.265625 64.875 123.269531 C 64.875 124.277344 65.695312 125.097656 66.699219 125.097656 "/><path style=" stroke:none;fill-rule:nonzero;fill:#5271ff;fill-opacity:1;" d="M 75.824219 125.097656 L 77.648438 125.097656 C 78.65625 125.097656 79.476562 124.277344 79.476562 123.269531 C 79.476562 122.265625 78.65625 121.445312 77.648438 121.445312 L 75.824219 121.445312 C 74.820312 121.445312 74 122.265625 74 123.269531 C 74 124.277344 74.820312 125.097656 75.824219 125.097656 "/><path style=" stroke:none;fill-rule:nonzero;fill:#5271ff;fill-opacity:1;" d="M 66.699219 148.820312 L 70.351562 148.820312 C 71.355469 148.820312 72.175781 148 72.175781 146.996094 C 72.175781 145.992188 71.355469 145.171875 70.351562 145.171875 L 66.699219 145.171875 C 65.695312 145.171875 64.875 145.992188 64.875 146.996094 C 64.875 148 65.695312 148.820312 66.699219 148.820312 "/><path style=" stroke:none;fill-rule:nonzero;fill:#5271ff;fill-opacity:1;" d="M 79.476562 146.996094 C 79.476562 145.992188 78.65625 145.171875 77.648438 145.171875 L 75.824219 145.171875 C 74.820312 145.171875 74 145.992188 74 146.996094 C 74 148 74.820312 148.820312 75.824219 148.820312 L 77.648438 148.820312 C 78.65625 148.820312 79.476562 148 79.476562 146.996094 "/><path style=" stroke:none;fill-rule:nonzero;fill:#5271ff;fill-opacity:1;" d="M 68.523438 128.746094 C 68.523438 129.75 69.34375 130.570312 70.351562 130.570312 L 81.300781 130.570312 C 82.304688 130.570312 83.125 129.75 83.125 128.746094 C 83.125 127.742188 82.304688 126.921875 81.300781 126.921875 L 70.351562 126.921875 C 69.34375 126.921875 68.523438 127.742188 68.523438 128.746094 "/><path style=" stroke:none;fill-rule:nonzero;fill:#5271ff;fill-opacity:1;" d="M 70.351562 136.046875 L 81.300781 136.046875 C 82.304688 136.046875 83.125 135.226562 83.125 134.222656 C 83.125 133.214844 82.304688 132.394531 81.300781 132.394531 L 70.351562 132.394531 C 69.34375 132.394531 68.523438 133.214844 68.523438 134.222656 C 68.523438 135.226562 69.34375 136.046875 70.351562 136.046875 "/><path style=" stroke:none;fill-rule:nonzero;fill:#5271ff;fill-opacity:1;" d="M 88.601562 136.046875 L 110.5 136.046875 C 111.503906 136.046875 112.324219 135.226562 112.324219 134.222656 C 112.324219 133.214844 111.503906 132.394531 110.5 132.394531 L 88.601562 132.394531 C 87.59375 132.394531 86.773438 133.214844 86.773438 134.222656 C 86.773438 135.226562 87.59375 136.046875 88.601562 136.046875 "/><path style=" stroke:none;fill-rule:nonzero;fill:#5271ff;fill-opacity:1;" d="M 70.351562 141.519531 L 81.300781 141.519531 C 82.304688 141.519531 83.125 140.699219 83.125 139.695312 C 83.125 138.691406 82.304688 137.871094 81.300781 137.871094 L 70.351562 137.871094 C 69.34375 137.871094 68.523438 138.691406 68.523438 139.695312 C 68.523438 140.699219 69.34375 141.519531 70.351562 141.519531 "/><path style=" stroke:none;fill-rule:nonzero;fill:#5271ff;fill-opacity:1;" d="M 88.601562 141.519531 L 117.800781 141.519531 C 118.804688 141.519531 119.625 140.699219 119.625 139.695312 C 119.625 138.691406 118.804688 137.871094 117.800781 137.871094 L 88.601562 137.871094 C 87.59375 137.871094 86.773438 138.691406 86.773438 139.695312 C 86.773438 140.699219 87.59375 141.519531 88.601562 141.519531 "/><path style=" stroke:none;fill-rule:nonzero;fill:#5271ff;fill-opacity:1;" d="M 72.175781 150.644531 L 70.351562 150.644531 C 69.34375 150.644531 68.523438 151.464844 68.523438 152.472656 C 68.523438 153.476562 69.34375 154.296875 70.351562 154.296875 L 72.175781 154.296875 C 73.179688 154.296875 74 153.476562 74 152.472656 C 74 151.464844 73.179688 150.644531 72.175781 150.644531 "/><path style=" stroke:none;fill-rule:nonzero;fill:#5271ff;fill-opacity:1;" d="M 94.074219 150.644531 L 79.476562 150.644531 C 78.46875 150.644531 77.648438 151.464844 77.648438 152.472656 C 77.648438 153.476562 78.46875 154.296875 79.476562 154.296875 L 94.074219 154.296875 C 95.082031 154.296875 95.898438 153.476562 95.898438 152.472656 C 95.898438 151.464844 95.082031 150.644531 94.074219 150.644531 "/><path style=" stroke:none;fill-rule:nonzero;fill:#5271ff;fill-opacity:1;" d="M 112.324219 150.644531 L 101.375 150.644531 C 100.371094 150.644531 99.550781 151.464844 99.550781 152.472656 C 99.550781 153.476562 100.371094 154.296875 101.375 154.296875 L 112.324219 154.296875 C 113.332031 154.296875 114.148438 153.476562 114.148438 152.472656 C 114.148438 151.464844 113.332031 150.644531 112.324219 150.644531 "/><path style=" stroke:none;fill-rule:nonzero;fill:#5271ff;fill-opacity:1;" d="M 72.175781 156.121094 L 70.351562 156.121094 C 69.34375 156.121094 68.523438 156.941406 68.523438 157.945312 C 68.523438 158.949219 69.34375 159.769531 70.351562 159.769531 L 72.175781 159.769531 C 73.179688 159.769531 74 158.949219 74 157.945312 C 74 156.941406 73.179688 156.121094 72.175781 156.121094 "/><path style=" stroke:none;fill-rule:nonzero;fill:#5271ff;fill-opacity:1;" d="M 94.074219 156.121094 L 79.476562 156.121094 C 78.46875 156.121094 77.648438 156.941406 77.648438 157.945312 C 77.648438 158.949219 78.46875 159.769531 79.476562 159.769531 L 94.074219 159.769531 C 95.082031 159.769531 95.898438 158.949219 95.898438 157.945312 C 95.898438 156.941406 95.082031 156.121094 94.074219 156.121094 "/><path style=" stroke:none;fill-rule:nonzero;fill:#5271ff;fill-opacity:1;" d="M 105.023438 156.121094 L 101.375 156.121094 C 100.371094 156.121094 99.550781 156.941406 99.550781 157.945312 C 99.550781 158.949219 100.371094 159.769531 101.375 159.769531 L 105.023438 159.769531 C 106.03125 159.769531 106.851562 158.949219 106.851562 157.945312 C 106.851562 156.941406 106.03125 156.121094 105.023438 156.121094 "/><path style=" stroke:none;fill-rule:nonzero;fill:#5271ff;fill-opacity:1;" d="M 88.601562 130.570312 L 92.25 130.570312 C 93.253906 130.570312 94.074219 129.75 94.074219 128.746094 C 94.074219 127.742188 93.253906 126.921875 92.25 126.921875 L 88.601562 126.921875 C 87.59375 126.921875 86.773438 127.742188 86.773438 128.746094 C 86.773438 129.75 87.59375 130.570312 88.601562 130.570312 "/><g style="fill:#5271ff;fill-opacity:1;"><g transform="translate(176.236748, 170.000014)"><path style="stroke:none" d="M 14.140625 -26.140625 C 23.285156 -26.140625 27.859375 -21.785156 27.859375 -13.078125 C 27.859375 -4.359375 23.285156 0 14.140625 0 L 2.8125 0 L 2.8125 -26.140625 Z M 11.203125 -6.265625 L 13.984375 -6.265625 C 17.503906 -6.265625 19.265625 -8.15625 19.265625 -11.9375 L 19.265625 -14.21875 C 19.265625 -17.988281 17.503906 -19.875 13.984375 -19.875 L 11.203125 -19.875 Z M 11.203125 -6.265625 "/></g></g><g style="fill:#5271ff;fill-opacity:1;"><g transform="translate(205.794706, 170.000014)"><path style="stroke:none" d="M 14.484375 -20.5625 C 15.066406 -20.5625 15.582031 -20.488281 16.03125 -20.34375 C 16.488281 -20.207031 16.71875 -20.128906 16.71875 -20.109375 L 16.71875 -13.75 L 14.28125 -13.75 C 12.71875 -13.75 11.585938 -13.34375 10.890625 -12.53125 C 10.191406 -11.726562 9.84375 -10.53125 9.84375 -8.9375 L 9.84375 0 L 2.28125 0 L 2.28125 -20.0625 L 8.46875 -20.0625 L 8.96875 -17.03125 C 9.425781 -18.1875 10.144531 -19.0625 11.125 -19.65625 C 12.113281 -20.257812 13.234375 -20.5625 14.484375 -20.5625 Z M 14.484375 -20.5625 "/></g></g><g style="fill:#5271ff;fill-opacity:1;"><g transform="translate(222.663262, 170.000014)"><path style="stroke:none" d="M 2.546875 -22.421875 L 2.546875 -27.546875 L 10.109375 -27.546875 L 10.109375 -22.421875 Z M 2.546875 0 L 2.546875 -20.0625 L 10.109375 -20.0625 L 10.109375 0 Z M 2.546875 0 "/></g></g><g style="fill:#5271ff;fill-opacity:1;"><g transform="translate(235.314682, 170.000014)"><path style="stroke:none" d="M 25.265625 0 L 25.265625 -9.421875 C 25.265625 -10.585938 25.304688 -11.785156 25.390625 -13.015625 C 25.484375 -14.242188 25.582031 -15.273438 25.6875 -16.109375 C 25.789062 -16.941406 25.851562 -17.472656 25.875 -17.703125 L 25.71875 -17.703125 L 20.90625 0 L 14.328125 0 L 9.46875 -17.671875 L 9.3125 -17.671875 C 9.332031 -17.441406 9.398438 -16.914062 9.515625 -16.09375 C 9.628906 -15.269531 9.738281 -14.242188 9.84375 -13.015625 C 9.945312 -11.785156 10 -10.585938 10 -9.421875 L 10 0 L 2.28125 0 L 2.28125 -26.140625 L 14.140625 -26.140625 L 18.09375 -11.0625 L 18.234375 -11.0625 L 22.15625 -26.140625 L 33.59375 -26.140625 L 33.59375 0 Z M 25.265625 0 "/></g></g><g style="fill:#5271ff;fill-opacity:1;"><g transform="translate(271.179353, 170.000014)"><path style="stroke:none" d="M 17.859375 -19.453125 L 17.859375 0 L 9.46875 0 L 9.46875 -19.453125 L 0.875 -19.453125 L 0.875 -26.140625 L 26.40625 -26.140625 L 26.40625 -19.453125 Z M 17.859375 -19.453125 "/></g></g></g></svg>